<svg width="50" height="50" viewBox="0 0 50 50" fill="none" xmlns="http://www.w3.org/2000/svg">
<path d="M47.7821 35.3384C48.2053 35.0242 48.5389 34.603 48.7493 34.1171C48.9597 33.6312 49.0394 33.0979 48.9804 32.571C48.9214 32.044 48.7257 31.5422 48.4131 31.116C48.1005 30.6898 47.6821 30.3544 47.2001 30.1435V26L44.8002 27.0295V30.1435C44.3179 30.3543 43.8993 30.6897 43.5865 31.116C43.2737 31.5423 43.0779 32.0444 43.0189 32.5715C42.9599 33.0986 43.0397 33.6321 43.2503 34.1181C43.4608 34.6042 43.7947 35.0255 44.2183 35.3396C43.8415 35.6189 43.5351 35.9837 43.3235 36.4044C43.112 36.8252 43.0013 37.2902 43.0003 37.762V40.7888C43.0003 41.11 43.1268 41.4181 43.3518 41.6452C43.5768 41.8724 43.882 42 44.2003 42H47.8001C48.1183 42 48.4235 41.8724 48.6485 41.6452C48.8736 41.4181 49 41.11 49 40.7888V37.7608C48.999 37.289 48.8883 36.8239 48.6768 36.4032C48.4652 35.9825 48.1588 35.6177 47.7821 35.3384Z" fill="white"/>
<path d="M40.625 29.2083V36.9166C40.6306 37.8128 40.4031 38.6949 39.9648 39.4765C39.5265 40.2582 38.8925 40.9124 38.125 41.375C34.1421 43.7012 29.6125 44.927 25 44.927C20.3875 44.927 15.8579 43.7012 11.875 41.375C11.1075 40.9124 10.4735 40.2582 10.0352 39.4765C9.59689 38.6949 9.36938 37.8128 9.37499 36.9166V29.2083L22.1562 34.6146C23.0566 34.9927 24.0234 35.1875 25 35.1875C25.9766 35.1875 26.9434 34.9927 27.8437 34.6146L40.625 29.2083Z" fill="white"/>
<path d="M47.9542 15.8719L27.0292 7.01769C26.3861 6.74719 25.6955 6.60785 24.9979 6.60785C24.3003 6.60785 23.6097 6.74719 22.9667 7.01769L2.04167 15.8719C1.47608 16.1111 0.993518 16.5117 0.65425 17.0235C0.314982 17.5354 0.134048 18.1359 0.134048 18.75C0.134048 19.3641 0.314982 19.9646 0.65425 20.4764C0.993518 20.9883 1.47608 21.3889 2.04167 21.6281L22.9667 30.4823C23.6096 30.7531 24.3003 30.8926 24.9979 30.8926C25.6956 30.8926 26.3862 30.7531 27.0292 30.4823L47.9542 21.6281C48.5197 21.3889 49.0023 20.9883 49.3416 20.4764C49.6808 19.9646 49.8618 19.3641 49.8618 18.75C49.8618 18.1359 49.6808 17.5354 49.3416 17.0235C49.0023 16.5117 48.5197 16.1111 47.9542 15.8719Z" fill="white"/>
</svg>
