<svg width="50" height="50" viewBox="0 0 50 50" fill="none" xmlns="http://www.w3.org/2000/svg">
<path d="M11.8164 8.88672C11.8164 14.6101 18.1201 19.2609 24.0787 24.3792C24.3548 24.6181 24.6967 24.7368 25.0386 24.7368C25.3805 24.7368 25.7224 24.6181 25.997 24.3792C32.8435 18.4536 38.1836 14.9541 38.1836 9.36738C38.1836 4.99141 34.975 1.5625 30.8794 1.5625C27.9812 1.5625 26.1401 3.20332 25.0386 4.78828C23.9371 3.20332 22.0975 1.5625 19.1993 1.5625C14.9221 1.5625 11.8164 4.64238 11.8164 8.88672Z" fill="white"/>
<path d="M10.5273 41.9922C11.3478 42.8417 11.8164 43.828 11.8164 45V46.9727C11.8164 47.7929 12.4608 48.4375 13.2812 48.4375H22.0703C22.8907 48.4375 23.5352 47.7929 23.5352 46.9727V34.0526C23.5352 33.6426 23.3887 33.2909 23.0956 32.9979L17.1777 27.0799C15.1982 25.1124 11.4104 24.6227 8.88662 27.0799L16.2108 34.4334C16.5917 35.0193 16.5331 35.7812 16.0351 36.2791C15.4491 36.865 14.5409 36.865 13.9549 36.2791L6.39639 28.7204C6.10352 28.4276 5.95703 28.0762 5.95703 27.6659V14.7461C5.95703 12.3144 3.89658 10.3516 1.46484 10.3516C0.644434 10.3516 0 10.996 0 11.8164V30.9765C0 31.3573 0.146484 31.7089 0.439551 32.002L10.5273 41.9922Z" fill="white"/>
<path d="M48.5351 10.3516C46.1034 10.3516 44.0429 12.3144 44.0429 14.7461V27.6659C44.0429 28.0761 43.8964 28.4276 43.6034 28.7206L36.0449 36.2793C35.4589 36.8652 34.5507 36.8652 33.9647 36.2793C33.4668 35.7813 33.4081 35.0195 33.7889 34.4336L41.1131 27.0801C38.5893 24.6229 34.8015 25.1126 32.822 27.0801L26.9042 32.9981C26.6111 33.291 26.4646 33.6428 26.4646 34.0528V46.9727C26.4646 47.7929 27.109 48.4375 27.9294 48.4375H36.7185C37.5389 48.4375 38.1833 47.7929 38.1833 46.9727V45C38.1833 43.828 38.652 42.8417 39.4724 41.9922L49.5604 32.002C49.8535 31.7089 50 31.3573 50 30.9765V11.8164C50 10.996 49.3555 10.3516 48.5351 10.3516Z" fill="white"/>
</svg>
