<svg width="50" height="50" viewBox="0 0 50 50" fill="none" xmlns="http://www.w3.org/2000/svg">
<g clip-path="url(#clip0_2210_1739)">
<path d="M8.88672 17.5781C8.88672 23.1659 11.2411 28.294 15.3469 31.6471C16.4478 32.5459 17.1951 33.7807 17.5083 35.1562H23.5352V23.1678C21.8338 22.5609 20.6055 20.9503 20.6055 19.043V16.1133C20.6055 15.3038 21.2608 14.6484 22.0703 14.6484C22.8798 14.6484 23.5352 15.3038 23.5352 16.1133V19.043C23.5352 19.8513 24.1917 20.5078 25 20.5078C25.8083 20.5078 26.4648 19.8513 26.4648 19.043V16.1133C26.4648 15.3038 27.1202 14.6484 27.9297 14.6484C28.7392 14.6484 29.3945 15.3038 29.3945 16.1133V19.043C29.3945 20.9503 28.1662 22.5609 26.4648 23.1678V35.1562H32.4917C32.8049 33.7807 33.5522 32.5459 34.6531 31.6471C38.7589 28.294 41.1133 23.1659 41.1133 17.5781C41.1133 7.88498 33.8848 0 25 0C16.1152 0 8.88672 7.88498 8.88672 17.5781Z" fill="white"/>
<path d="M48.5352 14.6484H45.5078C44.6983 14.6484 44.043 15.3038 44.043 16.1133C44.043 16.9228 44.6983 17.5781 45.5078 17.5781H48.5352C49.3446 17.5781 50 16.9228 50 16.1133C50 15.3038 49.3446 14.6484 48.5352 14.6484Z" fill="white"/>
<path d="M1.46484 17.5781H4.49219C5.30167 17.5781 5.95703 16.9228 5.95703 16.1133C5.95703 15.3038 5.30167 14.6484 4.49219 14.6484H1.46484C0.655365 14.6484 0 15.3038 0 16.1133C0 16.9228 0.655365 17.5781 1.46484 17.5781Z" fill="white"/>
<path d="M46.5664 3.66211C46.1586 2.96249 45.2618 2.72216 44.5652 3.12576L42.0273 4.5906C41.3265 4.99534 41.0862 5.89065 41.491 6.59179C41.8999 7.29751 42.7983 7.52945 43.4921 7.12814L46.0301 5.6633C46.7308 5.25856 46.9712 4.36325 46.5664 3.66211Z" fill="white"/>
<path d="M3.43358 28.5645C3.84252 29.2702 4.74088 29.5021 5.43477 29.1008L7.97269 27.636C8.67345 27.2312 8.91378 26.3359 8.50904 25.6348C8.10277 24.9352 7.20556 24.6907 6.50785 25.0984L3.96993 26.5633C3.26917 26.968 3.02885 27.8633 3.43358 28.5645Z" fill="white"/>
<path d="M41.491 25.6348C41.0862 26.3359 41.3265 27.2312 42.0273 27.636L44.5652 29.1008C45.2584 29.5014 46.1571 29.271 46.5664 28.5645C46.9712 27.8633 46.7308 26.968 46.0301 26.5633L43.4921 25.0984C42.7914 24.6907 41.8957 24.9352 41.491 25.6348Z" fill="white"/>
<path d="M3.96993 5.6633L6.50785 7.12814C7.20098 7.52868 8.09972 7.29827 8.50904 6.59179C8.91378 5.89065 8.67345 4.99534 7.97269 4.5906L5.43477 3.12576C4.73516 2.72216 3.83832 2.96249 3.43358 3.66211C3.02885 4.36325 3.26917 5.25856 3.96993 5.6633Z" fill="white"/>
<path d="M20.6055 50H29.3945C31.0127 50 32.3242 48.6885 32.3242 47.0703V43.9453C33.9424 43.9453 35.2539 42.6338 35.2539 41.0156C35.2539 39.3974 33.9424 38.0859 32.3242 38.0859H17.6758C16.0576 38.0859 14.7461 39.3974 14.7461 41.0156C14.7461 42.6338 16.0576 43.9453 17.6758 43.9453V47.0703C17.6758 48.6885 18.9873 50 20.6055 50Z" fill="white"/>
</g>
<defs>
<clipPath id="clip0_2210_1739">
<rect width="50" height="50" fill="white"/>
</clipPath>
</defs>
</svg>
