<svg width="50" height="50" viewBox="0 0 50 50" fill="none" xmlns="http://www.w3.org/2000/svg">
<g clip-path="url(#clip0_2210_1753)">
<path d="M8.79004 44.1406V49.8518C11.6556 49.2678 13.9172 47.0062 14.5012 44.1406H8.79004Z" fill="white"/>
<path d="M26.4639 44.1406V49.8518C29.3294 49.2678 31.591 47.0062 32.175 44.1406H26.4639Z" fill="white"/>
<path d="M48.5342 32.4219H44.1396V25C44.1396 24.1903 43.4845 23.5352 42.6748 23.5352H26.4639V19.043H33.7881C34.5978 19.043 35.2529 18.3878 35.2529 17.5781V14.6484H14.7451V17.5781C14.7451 18.3878 15.4003 19.043 16.21 19.043H23.5342V23.5352H7.3252C6.51553 23.5352 5.86035 24.1903 5.86035 25V32.4219H1.46582C0.656152 32.4219 0.000976562 33.0771 0.000976562 33.8867V48.5352C0.000976562 49.3448 0.656152 50 1.46582 50H5.86035V42.6758C5.86035 41.8661 6.51553 41.2109 7.3252 41.2109H14.6494V33.8867C14.6494 33.0771 13.9942 32.4219 13.1846 32.4219H8.79004V26.4648H23.5342V32.4219H19.1397C18.33 32.4219 17.6748 33.0771 17.6748 33.8867V48.5352C17.6748 49.3448 18.33 50 19.1397 50H23.5342V42.6758C23.5342 41.8661 24.1894 41.2109 24.999 41.2109H32.3232V33.8867C32.3232 33.0771 31.6681 32.4219 30.8584 32.4219H26.4639V26.4648H41.21V32.4219H36.8154C36.0058 32.4219 35.3506 33.0771 35.3506 33.8867V48.5352C35.3506 49.3448 36.0058 50 36.8154 50H41.21V42.6758C41.21 41.8661 41.8651 41.2109 42.6748 41.2109H49.999V33.8867C49.999 33.0771 49.3438 32.4219 48.5342 32.4219Z" fill="white"/>
<path d="M49.8508 44.1406H44.1396V49.8518C47.0051 49.2678 49.2668 47.0062 49.8508 44.1406Z" fill="white"/>
<path d="M14.7451 7.32422H35.2529V11.7188H14.7451V7.32422Z" fill="white"/>
<path d="M35.2529 1.46484C35.2529 0.655176 34.5978 0 33.7881 0H16.21C15.4003 0 14.7451 0.655176 14.7451 1.46484V4.39453H35.2529V1.46484Z" fill="white"/>
</g>
<defs>
<clipPath id="clip0_2210_1753">
<rect width="50" height="50" fill="white"/>
</clipPath>
</defs>
</svg>
