<svg width="50" height="50" viewBox="0 0 50 50" fill="none" xmlns="http://www.w3.org/2000/svg">
<g clip-path="url(#clip0_2210_1727)">
<path d="M28.2031 36.0156C28.7793 35.4394 29.4434 35.0195 30.1562 34.7559C28.584 32.6562 28.8379 29.4629 30.7422 27.627L30.791 27.5781C32.4121 25.957 34.8047 25.5566 36.7969 26.377C37.0508 25.5078 37.5293 24.707 38.1836 24.0527L38.2324 24.0039C40.2832 21.8652 43.9844 21.8652 46.0449 24.0039L46.1816 24.1406L46.4648 23.8574C51.1719 19.1602 51.1719 11.5234 46.4844 6.82617C41.7871 2.12891 34.1504 2.12891 29.4629 6.82617L26.6602 9.62891L31.9824 14.8047C34.3555 17.002 34.3848 21.0645 32.0508 23.3008C29.834 25.6152 25.8398 25.6152 23.623 23.3008L21.7773 21.4746C21.7188 21.416 21.6211 21.416 21.5723 21.4746L10.166 32.8711C9.44336 33.5645 9.44336 34.8242 10.166 35.5176C10.8984 36.25 12.0898 36.25 12.8125 35.5176C12.832 35.498 16.1035 32.2266 16.1035 32.2266C16.748 31.582 17.8027 31.582 18.4473 32.2266C19.0918 32.8711 19.0918 33.9258 18.4473 34.5703L15.3418 37.6758C14.5117 38.4668 14.5117 39.9023 15.3418 40.6934C16.1328 41.5234 17.5684 41.5234 18.3594 40.6934L21.4551 37.5977C22.0996 36.9531 23.1543 36.9531 23.7988 37.5977C24.4434 38.2422 24.4434 39.2969 23.7988 39.9414L20.7227 43.0176C19.873 43.8477 19.8633 45.2148 20.7031 46.0547C21.4941 46.8848 22.9297 46.8848 23.7207 46.0547L27.1875 42.5879C26.0254 40.5078 26.416 37.7148 28.1348 36.0449L28.2031 36.0156Z" fill="white"/>
<path d="M3.32032 7.20704C-1.10351 11.6309 -1.11327 18.8281 3.30079 23.2617L9.35548 28.9844L19.2188 19.1211C20.5078 17.7734 22.832 17.7734 24.1211 19.1211L25.957 20.957C26.9434 21.9824 28.7109 21.9824 29.6875 20.957C30.1953 20.4492 30.4688 19.7852 30.459 19.0723C30.4492 18.3594 30.166 17.6953 29.6582 17.1973L19.4043 7.22657C14.9805 2.78321 7.75392 2.77345 3.32032 7.20704Z" fill="white"/>
<path d="M41.1914 38.0762L41.2402 38.0273C42.0898 37.207 42.0996 35.7324 41.2402 34.9121L38.1934 31.8652L36.2598 29.9316C35.4004 29.0723 34.0039 29.0723 33.1445 29.9316L33.0957 29.9805C32.2461 30.8008 32.2363 32.2754 33.0957 33.0957L38.0762 38.0762C38.9356 38.9355 40.332 38.9355 41.1914 38.0762Z" fill="white"/>
<path d="M46.709 32.5586L46.7578 32.5098C47.6172 31.6504 47.6172 30.2539 46.7578 29.3945L43.7109 26.3477C42.8906 25.4981 41.416 25.4883 40.5957 26.3477L40.5469 26.3965C39.6973 27.2168 39.6973 28.6914 40.5469 29.5117L43.5937 32.5586C44.4531 33.418 45.8496 33.418 46.709 32.5586Z" fill="white"/>
<path d="M32.4805 43.5059C33.3399 44.3652 34.7363 44.3652 35.5957 43.5059L35.6445 43.457C36.5039 42.5977 36.5039 41.2012 35.6445 40.3418L33.6719 38.3691C32.8125 37.5098 31.416 37.5098 30.5566 38.3691L30.5078 38.418C29.6582 39.2383 29.6484 40.7129 30.5078 41.5332L32.4805 43.5059Z" fill="white"/>
</g>
<defs>
<clipPath id="clip0_2210_1727">
<rect width="50" height="50" fill="white"/>
</clipPath>
</defs>
</svg>
